<svg viewBox="0 0 506 585" xmlns="http://www.w3.org/2000/svg">
  <g stroke="#fff" fill="none" fill-rule="evenodd">
    <path d="M267.453 61.668c20.849-18.902 19.439-35.373-4.23-49.414-35.501-21.06-79.036-8.415-90.641 0-7.737 5.61-19.413 15.936-35.027 30.976-60.808 48.634-94.176 93.023-100.103 133.166-8.89 60.214 16.323 67.032 6.423 97.917-9.9 30.884-37.201 46.718-42.215 72.3-3.342 17.055 2.29 36.024 16.895 56.907-6.381-25.986-6.048-45.954 1-59.907 10.571-20.928 31.916-28.497 46.285-77.327 6.211-21.108-3.032-56.897-4.876-89.89-.667-11.926.959-28.65 4.876-50.17"/>
    <path d="M243.071 57.853c-13.82-14.146-30.703-22.417-50.651-24.815-19.949-2.397-38.52 1.668-55.714 12.197M84.155 99.724C74.858 127.1 69.435 148 67.887 162.423c-1.55 14.423-1.55 44.02 0 88.79"/>
    <path d="M41.068 315.947c-.814 15.49-.814 25.635 0 30.43.815 4.797 3.895 13.292 9.24 25.485-1.522-20.031-.31-39.53 3.639-58.497 5.921-28.452 18.996-53.96 22.082-76.633 2.057-15.115 1.202-36.973-2.566-65.571M192.337 54.865c-30.623-2.175-57.296 8.063-80.02 30.715-22.722 22.651-34.429 51.022-35.118 85.112"/>
    <path d="M229.786 71.213c-.797 3.57-3.321 5.864-7.572 6.881-6.377 1.527-55.857-7.94-95.826 26.925-26.646 23.244-40.668 55.54-42.066 96.89"/>
    <path d="M90.364 161.31c13.65-20.23 25.225-34.918 34.727-44.066 9.5-9.147 25.396-20.893 47.684-35.236"/>
    <path d="M103.327 142.893c-3.822 8.253-6.04 14.633-6.653 19.14-.613 4.507-1.114 14.553-1.501 30.137M49.492 368.466c2.332 11.929 5.3 21.164 8.906 27.705 3.606 6.54 7.19 11.39 10.755 14.549-5.729-25.254-6.316-55.61-1.763-91.065 4.553-35.456 12.937-65.811 25.152-91.065M181.34 1.873c23.63 1.12 39.669 2.64 48.117 4.564 19.537 4.447 30.325 12.76 34.297 19.717 3.876 6.792 5.13 14.385 3.76 22.778M283.242 39.514c2.957-3.182 10.047-4.773 21.271-4.773 16.836 0 36.707 24.593 53.157 51.719 16.451 27.126 46.453 168.147 65.878 180.573 19.425 12.426 30.01-2.046 36.822 2.01 6.98 0 22.503 14.614 34.974 42.778 3.069 6.931 6.114 19.07 9.134 36.415"/>
    <path d="M273.427 55.189c1.24-.64 4.838-.21 10.792 1.291 3.864.974 16.48 7.094 32.533 23.41 5.784 5.879 15.067 18.315 27.85 37.31M295.74 89.062c-15.208-18.128-27.089-27.193-35.643-27.193-12.832 0-32.85 18.329-37.095 32.895-2.83 9.71-.668 20.953 6.484 33.727"/>
    <path d="M249.954 64.537c-8.283 8.59-13.625 17.688-16.027 27.294-2.401 9.607-1.872 20.62 1.588 33.041"/>
    <path d="M245.942 68.314c-9.255 12.547-11.235 27.81-5.941 45.787 7.94 26.966 44.46 42.687 58.853 63.776 9.595 14.06 16.06 31.997 19.396 53.812"/>
    <path d="M256.215 88.89c0 5.314 4.64 14.583 13.92 27.81 13.918 19.84 68.97 44.263 97.88 83.27 19.274 26.004 29.993 58.148 32.156 96.432-5.298-24.019-11.564-42.427-18.799-55.225-7.234-12.799-31.486-39.857-72.757-81.175M289.97 166.131c9.904 23.754 12.037 41.342 6.399 52.764-8.457 17.132-19.162 22.983-26.328 59.34-4.778 24.238-1.365 53.215 10.239 86.93-2.188-22.684-.224-50.232 5.893-82.645 6.116-32.413 13.352-56.705 21.706-72.876M310.498 200.798v121.567M81.18 288.52c-7.017 32.857-10.076 60.638-9.179 83.34.898 22.704 6.384 44.554 16.458 65.55"/>
    <path d="M68.77 408.96c6.547 21.99 15.12 38.34 25.72 49.048 10.6 10.708 22.132 19.327 34.597 25.858-3.118-4.508-5.143-7.773-6.077-9.796-.934-2.024-1.857-5.146-2.769-9.368"/>
    <path d="M81.187 406.74c8.062 18.076 14.839 31.61 20.33 40.602 5.491 8.992 12.879 18.448 22.162 28.368M88.346 320.182c-7.113 28.433-3.581 62.846 10.595 103.24 14.177 40.392 35.247 62.496 63.21 66.312-5.184-4.562-8.514-8.366-9.987-11.41-1.474-3.044-2.75-8.752-3.826-17.125-15.835-20.051-26.828-37.735-32.978-53.051-6.15-15.316-10.02-34.64-11.605-57.97M123.02 371.7l20.879 84.206"/>
    <path d="M87.81 240.582c-5.928 17.963-8.068 34.969-6.42 51.018 2.472 24.075 7.747 29.758 15.969 41.953 16.08 23.848 39.652 40.33 44.548 45.637 11.098 12.029 31.015 38.274 31.015 60.475 0 11.424-7.703 21.77-17.366 25.443-1.905.723-4.227.537-6.966-.56"/>
    <path d="M151.978 402.672c5.151 12.06 8.004 21.97 8.558 29.734.555 7.764-.872 17.826-4.279 30.187M86.583 275.85c1.988 5.527 5.953 10.935 11.896 16.225 8.914 7.934 36.944 24.675 56.72 50.734 19.247 25.365 24.36 37.297 28.068 61.196 2.472 15.932-.648 27.707-9.36 35.323M105.4 154.535c-1.281 4.944-2.077 8.995-2.388 12.153-.31 3.16-.31 7.21 0 12.153M110.544 255.659c.676 13.873 2.535 23.932 5.578 30.178 3.044 6.246 9.22 12.678 18.528 19.296"/>
    <path d="M177.483 381.034c6.32 9.81 10.436 17.733 12.35 23.77 1.913 6.038 3.741 18.621 5.486 37.75 3.61-7.297 6.25-12.519 7.922-15.664 4.863-9.153 8.91-16.672 9.67-24.598 1.152-12.01-1.778-25.051-8.789-39.123"/>
    <path d="M170.412 365.397c13.353 10.956 21.75 20.79 25.194 29.503 3.444 8.713 3.817 23.653 1.119 44.821M310.835 202.746c-.2 12.584.674 22.589 2.62 30.014 2.919 11.137 12.917 31.33 5.75 60.227-7.168 28.898-40.817 70.27-53.53 101.713-8.477 20.962-7.218 41.422 3.776 61.38-.714-1.369-.411-2.579.908-3.63 1.98-1.577 34.817-19.127 45.418-38.186 7.066-12.706 12.606-26.879 16.62-42.52"/>
    <path d="M320.65 218.64c15.827 36.416 22.198 73.675 19.114 111.778-3.084 38.102-14.87 67.733-35.357 88.892"/>
    <path d="M321.308 286.319c-4.178 34.147-8.785 58.45-13.823 72.91-5.037 14.46-16.985 38.176-35.844 71.15M340.614 307.997c1.163 31.918-.537 57.15-5.099 75.692-4.562 18.544-13.231 35.46-26.008 50.748 42.54 3.686 69.03-6.788 79.47-31.421 10.44-24.634 4.159-64.855-18.843-120.663"/>
    <path d="M322.998 192.642c14.701 25.556 24.155 45.861 28.36 60.916 4.207 15.055 8.497 41.615 12.87 79.683M335.22 186.355c14.47 24.551 24.356 46.72 29.66 66.505 5.305 19.785 6.991 39.546 5.06 59.282M361.907 429.208c.87 4.136 5.1 6.985 12.688 8.547 5.78 1.19 16.27-1.225 28.393-8.547 11.752-7.097 25.101-18.914 33.326-29.664 11.14-14.56 9.97-40.26-3.512-77.1 5.45 12.697 9.028 22.89 10.735 30.581 1.707 7.691 2.488 15.639 2.344 23.843 1.324-3.71 2.843-6.967 4.557-9.77 1.713-2.802 6.025-9.08 12.933-18.834 9.65 4.685 17.182 7.355 22.593 8.009 5.412.654 11.013-.429 16.805-3.248"/>
    <path d="M434.389 293.673c9.42 19.366 19.266 33.624 29.54 42.776 10.273 9.152 20.12 14.976 29.54 17.473"/>
    <path d="M456.703 275.664c14.483 16.264 23.905 29.477 28.267 39.64 4.363 10.165 6.283 23.378 5.762 39.641"/>
    <g>
      <path d="M90.021 453.575c-2.751 0-6.526 2.035-11.324 6.103-7.196 6.103-23.514 60.405-20.001 65.384 3.513 4.979 35.817 15.551 50.885 28.129 15.068 12.577 12.94 18.667 26.546 28.128 9.071 6.308 105.832-3.069 290.284-28.128 23.466-1.082 40.245-2.842 50.337-5.283 10.093-2.44 19.323-6.97 27.691-13.586-3.974-60.096-8.062-99.98-12.263-119.65-5.936-27.795-19.868-53.951-25.185-57.401-3.544-2.3-6.83-2.3-9.858 0" stroke-width="2"/>
      <path d="M87.397 454.104c-.415 2.578-.072 5.173 1.028 7.787 1.1 2.613 2.818 5.027 5.155 7.242M117.443 477.436a100.222 100.222 0 0 1-11.32 8.333c-3.893 2.457-8.334 4.79-13.325 6.998 22.448 17.118 37.216 28.154 44.301 33.108 9.072 6.343 18.818 8.499 19.493 10.591 1.467 4.545 2.2 19.966 2.2 46.265" stroke-width="2"/>
      <path stroke-width="2" d="M101.769 499.606l14.07 25.104v34.425M101.975 487.252c22.519 19.824 35.315 30.229 38.389 31.212 2.068.663 10.117 1.883 15.737 3.31 3.746.953 8.24 2.478 13.479 4.577.07 29.743.07 45.466 0 47.168-.07 1.702-1.06 3.43-2.968 5.182"/>
      <path d="M125.192 486.703c-3.112 3.785.92 13.89 6.854 19.279 5.934 5.389 15.621 7.542 18.638 3.872 3.017-3.669-.787-12.331-7.025-17.996-6.238-5.665-15.356-8.94-18.467-5.155z" stroke-width="2"/>
      <path d="M127.91 489.196c-2.447 2.976.725 10.924 5.392 15.162 4.667 4.239 12.286 5.932 14.658 3.046 2.373-2.886-.619-9.698-5.525-14.154-4.906-4.456-12.077-7.03-14.524-4.054zM202.043 429.747c0 29.003-3 56.605-8.999 82.808-6 26.203-11.899 49.361-17.7 69.474M314.545 421.287c-7.168 9.135-12.371 15.405-15.608 18.808-12.508 13.153-20.98 20.463-22.552 25.032-3.275 9.516-1.916 91.07 0 98.645 1.277 5.05 2.867 7.776 4.769 8.179M310.322 440.582c23.62 18.943 40.683 33.452 51.192 43.528 10.508 10.076 15.925 17.123 16.25 21.14-31.524 8.484-53.465 17.5-65.822 27.047-8.474 6.548-20.8 16.66-25.651 26.675-1.482 3.058-2.274 7.398-2.376 13.018" stroke-width="2"/>
      <path stroke-width="2" d="M338.875 505.925l6.656-6.548-27.215-25.58-4.9 3.516 21.794 26.52M275.829 554.822c17.482-15.854 30.021-26.532 37.618-32.035 7.596-5.503 27.411-14.044 59.445-25.622M323.661 451.696l13.101-2.018c32.716 18.98 50.815 28.471 54.299 28.471 2.245 0 14.423-6.77 28.398-10.85 9.317-2.721 17.45-4.016 24.4-3.884-7.544-10.883-12.705-19.158-15.483-24.825-2.777-5.666-5.75-13.986-8.917-24.959"/>
      <path d="M430.42 452.194c-17.943 5.998-34.183 8.008-48.718 6.032-14.535-1.976-28.13-8.79-40.784-20.443l-22.115 9.984M411.819 475.733c-1.715 16.668-3.45 26.57-5.203 29.707-1.754 3.138-17.377 21.935-46.87 56.393M201.11 456.405c.355-.03.563.036.623.2 5.058 13.797 13.634 21.624 25.729 23.479 12.31 1.888 28.454-2.132 48.432-12.06" stroke-width="2"/>
      <path d="M198.666 481.016c.83.1 1.446.247 1.849.443 10.81 5.257 19.805 8.245 26.984 8.963 7.581.758 23.332.073 47.252-2.055M274.573 504.349c-22.89-.242-38.701-.773-47.433-1.592-8.732-.82-18.929-2.732-30.59-5.734M192.005 515.81c.232.052.464.146.695.281 3.276 1.92 8.061 3.989 22.891 6.256 9.887 1.511 29.473.732 58.758-2.337M187.45 535.448c17.604 2.959 31.425 4.438 41.463 4.438s25.38-1.48 46.027-4.438M182.786 554.892c5.087 1.887 15.49 2.83 31.208 2.83 15.72 0 36.173-3.02 61.36-9.06" stroke-width="6"/>
      <path d="M187.453 571.183c11.423.686 24.03.686 37.823 0 13.792-.686 29.854-3.19 48.186-7.513" stroke-width="5"/>
      <path d="M319.065 478.569l19.964 21.859" stroke-width="2"/></g><g>
      <path d="M105.064 162.27l4.677 15.087M222.441 361.705c8.748 22.513 11.68 35.795 8.794 39.847-2.885 4.051-11.197 10.579-24.937 19.583" stroke-width="2"/>
      <path d="M121.799 259.276c6.055 21.148 12.418 36.695 19.088 46.64 10.005 14.918 18.98 19.794 30.829 32.449 17.996 19.222 18.634 19.806 31.017 24.01 15.778 5.356 38.173-7.464 67.186-38.459" stroke-width="2"/>
      <path d="M225.435 145.094c-25.305 1.724-37.022 20.721-39.095 41.922-2.073 21.2 18.448 48.1 42.043 48.1 23.596 0 37.525-28.162 36.205-50.715-1.321-22.554-13.849-41.031-39.153-39.307z" stroke-width="7"/>
      <path stroke-width="12" d="M256.39 163.106l2.682-.883 29.25 2.83"/>
      <path d="M156.13 194.821c5.717-6.211 10.136-9.87 13.257-10.979 3.121-1.108 8.45-1.108 15.989 0" stroke-width="10"/>
      <path d="M120.47 174.148c-20.897 3.177-32.393 20.114-27.317 48.952 5.076 28.838 28.808 42.037 46.827 35.715 18.018-6.322 25.335-35.205 20.943-55.69-4.392-20.487-19.554-32.154-40.452-28.977z" stroke-width="6"/>
      <path d="M94.146 194.88c-7.985 5.058-11.977 10.112-11.977 15.16 0 5.05 3.66 10.103 10.977 15.16-1.083-6.073-1.625-11.127-1.625-15.16 0-4.033.875-9.086 2.625-15.16z" stroke-width="8"/>
      <path d="M87.844 201.877v13.61" stroke-width="4"/>
      <path d="M246.557 146.057c9.442-.437 15.61 1.413 18.506 5.548 2.896 4.136 2.797 10.374-.296 18.715-2.596-5.597-5.05-10.047-7.364-13.35-2.313-3.304-5.929-6.942-10.846-10.913z" stroke-width="8"/>
      <path d="M258 150l5.313 7.877" stroke-width="4"/>
    </g>
  </g>
</svg>